<svg width="205" height="167" viewBox="0 0 205 167" fill="none" xmlns="http://www.w3.org/2000/svg">
<path d="M0.964844 33.9626L204.909 0.503906V139.455H0.964844V33.9626Z" fill="white"/>
<rect x="6.45312" y="45.668" width="192.426" height="87.4505" fill="#F7DC16"/>
<path d="M6.45312 39.1756L198.88 8.99805V39.1756H6.45312Z" fill="#1E3595"/>
<path d="M27.2451 87.2293V73.6801H30.9914C33.2392 73.6801 34.8418 74.2629 35.7992 75.4284C36.7566 76.5939 37.2352 78.3006 37.2352 80.5484C37.2352 82.8378 36.6733 84.5236 35.5494 85.6059C34.4671 86.6882 33.031 87.2293 31.2411 87.2293H27.2451ZM18.2539 67.0616V111.643H27.2451V93.8478H32.0528C34.1758 93.8478 36.1114 93.5772 37.8596 93.0361C39.6079 92.495 41.0856 91.6833 42.2928 90.601C43.5416 89.5187 44.4989 88.1243 45.165 86.4176C45.8726 84.711 46.2264 82.7129 46.2264 80.4235C46.2264 78.7585 46.0183 77.1351 45.602 75.5533C45.1858 73.9299 44.4989 72.4938 43.5415 71.245C42.5842 69.9963 41.3146 68.9972 39.7328 68.248C38.1926 67.4571 36.2779 67.0616 33.9884 67.0616H18.2539Z" fill="#1E3595"/>
<path d="M75.5448 67.0616H50.6317V111.643H76.1691V104.275H59.6229V92.2868H74.6082V84.9191H59.6229V74.4294H75.5448V67.0616Z" fill="#1E3595"/>
<path d="M80.6925 67.0616V111.643H89.6837V92.2868H104.669V84.9191H89.6837V74.4294H105.606V67.0616H80.6925Z" fill="#1E3595"/>
<path d="M109.346 111.456H118.337V66.8743H109.346V111.456Z" fill="#1E3595"/>
<path d="M131.959 97.719H122.968V99.5297C122.968 103.651 124.05 106.814 126.215 109.02C128.421 111.227 132.063 112.33 137.142 112.33C142.012 112.33 145.8 111.268 148.506 109.145C151.253 106.981 152.627 103.547 152.627 98.8429C152.627 97.4693 152.502 96.2205 152.252 95.0966C152.002 93.9727 151.544 92.9529 150.878 92.0371C150.254 91.0797 149.401 90.2056 148.318 89.4147C147.236 88.5822 145.842 87.7913 144.135 87.042L137.204 84.0449C135.289 83.2541 134.041 82.4007 133.458 81.485C132.875 80.5276 132.584 79.3621 132.584 77.9884C132.584 77.3224 132.646 76.6772 132.771 76.0528C132.938 75.4284 133.208 74.8873 133.583 74.4294C133.999 73.9299 134.54 73.5344 135.206 73.2431C135.872 72.9517 136.705 72.806 137.704 72.806C139.452 72.806 140.701 73.3888 141.45 74.5543C142.199 75.6782 142.574 77.3016 142.574 79.4245H151.19V78.1757C151.19 76.0528 150.837 74.2421 150.129 72.7436C149.463 71.2034 148.506 69.9546 147.257 68.9972C146.05 67.9982 144.593 67.2906 142.886 66.8743C141.221 66.4164 139.39 66.1875 137.391 66.1875C133.104 66.1875 129.732 67.2698 127.276 69.4343C124.821 71.5988 123.593 74.8873 123.593 79.2996C123.593 81.1311 123.821 82.7545 124.279 84.1698C124.737 85.5435 125.445 86.7714 126.402 87.8537C127.401 88.8943 128.629 89.8101 130.086 90.601C131.543 91.3919 133.271 92.1203 135.269 92.7864C136.767 93.2859 138.016 93.7854 139.015 94.2849C140.056 94.7428 140.888 95.2631 141.512 95.8458C142.137 96.4286 142.574 97.0946 142.824 97.8439C143.115 98.5515 143.261 99.4049 143.261 100.404C143.261 102.277 142.699 103.671 141.575 104.587C140.493 105.461 139.265 105.898 137.891 105.898C136.725 105.898 135.747 105.732 134.956 105.399C134.207 105.066 133.604 104.608 133.146 104.025C132.688 103.443 132.376 102.735 132.209 101.902C132.043 101.028 131.959 100.071 131.959 99.0302V97.719Z" fill="#1E3595"/>
<path d="M175.125 94.8468L170.817 74.804H170.692L166.384 94.8468H175.125ZM176.311 67.0616L188.112 111.643H178.746L176.686 102.215H164.823L162.762 111.643H153.396L165.197 67.0616H176.311Z" fill="#1E3595"/>
<path d="M33.7335 165.426V166.38H23.7188V151.865H33.4225V152.819H24.7762V158.542H32.5102V159.475H24.7762V165.426H33.7335Z" fill="#0D1F3C"/>
<path d="M57.9503 166.38L57.9296 153.96L51.8544 164.451H51.336L45.2608 154.001V166.38H44.2241V151.865H45.1156L51.6055 163.083L58.0955 151.865H58.9663L58.987 166.38H57.9503Z" fill="#0D1F3C"/>
<path d="M75.8868 151.865C77.7114 151.865 79.1421 152.301 80.1789 153.172C81.2156 154.029 81.7339 155.224 81.7339 156.759C81.7339 158.279 81.2156 159.475 80.1789 160.346C79.1421 161.203 77.7114 161.631 75.8868 161.631H71.7399V166.38H70.6824V151.865H75.8868ZM75.8868 160.678C77.435 160.678 78.6169 160.339 79.4324 159.662C80.248 158.984 80.6557 158.017 80.6557 156.759C80.6557 155.501 80.248 154.533 79.4324 153.856C78.6169 153.165 77.435 152.819 75.8868 152.819H71.7399V160.678H75.8868Z" fill="#0D1F3C"/>
<path d="M102.014 166.38L98.5513 161.528C98.0398 161.597 97.5698 161.631 97.1413 161.631H92.9944V166.38H91.9369V151.865H97.1413C98.966 151.865 100.397 152.301 101.433 153.172C102.47 154.029 102.988 155.224 102.988 156.759C102.988 157.906 102.691 158.874 102.097 159.662C101.516 160.436 100.68 160.982 99.588 161.3L103.217 166.38H102.014ZM97.1413 160.698C98.6895 160.698 99.8714 160.36 100.687 159.682C101.502 158.991 101.91 158.017 101.91 156.759C101.91 155.501 101.502 154.533 100.687 153.856C99.8714 153.165 98.6895 152.819 97.1413 152.819H92.9944V160.698H97.1413Z" fill="#0D1F3C"/>
<path d="M123.51 165.426V166.38H113.495V151.865H123.199V152.819H114.553V158.542H122.287V159.475H114.553V165.426H123.51Z" fill="#0D1F3C"/>
<path d="M137.816 166.483C136.751 166.483 135.735 166.304 134.768 165.944C133.814 165.571 133.067 165.094 132.528 164.513L133.005 163.726C133.517 164.265 134.201 164.707 135.058 165.053C135.929 165.384 136.841 165.55 137.795 165.55C139.177 165.55 140.221 165.288 140.926 164.762C141.631 164.237 141.983 163.553 141.983 162.71C141.983 162.06 141.797 161.542 141.423 161.154C141.05 160.767 140.587 160.47 140.034 160.263C139.481 160.056 138.735 159.841 137.795 159.62C136.731 159.357 135.873 159.102 135.224 158.853C134.588 158.604 134.042 158.224 133.586 157.713C133.143 157.187 132.922 156.489 132.922 155.618C132.922 154.913 133.109 154.271 133.482 153.69C133.855 153.096 134.422 152.626 135.182 152.28C135.956 151.935 136.917 151.762 138.064 151.762C138.866 151.762 139.654 151.879 140.428 152.114C141.202 152.349 141.873 152.667 142.439 153.068L142.045 153.918C141.465 153.517 140.822 153.213 140.117 153.006C139.426 152.798 138.742 152.695 138.064 152.695C136.724 152.695 135.708 152.964 135.016 153.503C134.325 154.043 133.98 154.741 133.98 155.598C133.98 156.247 134.166 156.766 134.54 157.153C134.913 157.54 135.376 157.837 135.929 158.044C136.482 158.252 137.235 158.473 138.189 158.708C139.253 158.97 140.103 159.226 140.739 159.475C141.375 159.724 141.914 160.104 142.357 160.615C142.813 161.113 143.041 161.79 143.041 162.647C143.041 163.352 142.847 163.995 142.46 164.576C142.087 165.156 141.506 165.619 140.718 165.965C139.931 166.31 138.963 166.483 137.816 166.483Z" fill="#0D1F3C"/>
<path d="M162.249 162.295H153.83L151.985 166.38H150.845L157.521 151.865H158.579L165.255 166.38H164.115L162.249 162.295ZM161.855 161.403L158.04 153.027L154.245 161.403H161.855Z" fill="#0D1F3C"/>
<path d="M178.34 166.483C177.276 166.483 176.26 166.304 175.292 165.944C174.339 165.571 173.592 165.094 173.053 164.513L173.53 163.726C174.041 164.265 174.726 164.707 175.583 165.053C176.453 165.384 177.366 165.55 178.32 165.55C179.702 165.55 180.745 165.288 181.45 164.762C182.155 164.237 182.508 163.553 182.508 162.71C182.508 162.06 182.321 161.542 181.948 161.154C181.575 160.767 181.112 160.47 180.559 160.263C180.006 160.056 179.26 159.841 178.32 159.62C177.255 159.357 176.398 159.102 175.748 158.853C175.113 158.604 174.567 158.224 174.11 157.713C173.668 157.187 173.447 156.489 173.447 155.618C173.447 154.913 173.634 154.271 174.007 153.69C174.38 153.096 174.947 152.626 175.707 152.28C176.481 151.935 177.442 151.762 178.589 151.762C179.391 151.762 180.179 151.879 180.953 152.114C181.727 152.349 182.397 152.667 182.964 153.068L182.57 153.918C181.99 153.517 181.347 153.213 180.642 153.006C179.951 152.798 179.266 152.695 178.589 152.695C177.248 152.695 176.232 152.964 175.541 153.503C174.85 154.043 174.504 154.741 174.504 155.598C174.504 156.247 174.691 156.766 175.064 157.153C175.437 157.54 175.901 157.837 176.453 158.044C177.006 158.252 177.76 158.473 178.714 158.708C179.778 158.97 180.628 159.226 181.264 159.475C181.9 159.724 182.439 160.104 182.881 160.615C183.337 161.113 183.565 161.79 183.565 162.647C183.565 163.352 183.372 163.995 182.985 164.576C182.612 165.156 182.031 165.619 181.243 165.965C180.455 166.31 179.488 166.483 178.34 166.483Z" fill="#0D1F3C"/>
</svg>
